<svg width="18" height="20" viewBox="0 0 18 20" fill="none" xmlns="http://www.w3.org/2000/svg">
<path fill-rule="evenodd" clip-rule="evenodd" d="M4 5C4 2.23772 6.23772 0 9 0C11.7623 0 14 2.23772 14 5V6H16C17.5 6 18 6.72 18 7.6V17.1C18 18.2046 17.1046 19.1 16 19.1H2C0.89543 19.1 0 18.2046 0 17.1V7.6C0 6.72 0.5 6 1.85 6H4V5ZM12 5V6H6V5C6 3.34228 7.3423 2 9 2C10.6577 2 12 3.34228 12 5ZM9 9C7.8954 9 6.94404 9.8968 7 11C7.037 11.7298 7.4088 12.3007 8 12.5816V14C8 14.4142 8.1772 15.5 9 15.5C9.8228 15.5 10 14.4142 10 14V12.5816C10.5912 12.3007 10.963 11.7298 11 11C11.056 9.8968 10.1046 9 9 9Z" fill="#1A1A1A"/>
</svg>
