<svg width="28" height="28" viewBox="0 0 28 28" fill="none" xmlns="http://www.w3.org/2000/svg">
<g clip-path="url(#clip0_0_19)">
<path d="M14.9393 24.3058C14.3595 23.9645 13.6405 23.9645 13.0608 24.3058L7.50389 27.5765C6.13301 28.3833 4.44996 27.2001 4.74527 25.637L6.03894 18.7898C6.15428 18.1792 5.95575 17.5516 5.51029 17.1185L0.562866 12.3081C-0.550666 11.2254 0.0833175 9.33535 1.6245 9.14315L8.14954 8.32943C8.79684 8.2487 9.35393 7.83331 9.616 7.23594L12.3045 1.10796C12.9524 -0.368993 15.0477 -0.368996 15.6956 1.10796L18.384 7.23594C18.6461 7.83331 19.2032 8.2487 19.8506 8.32943L26.3756 9.14315C27.9167 9.33535 28.5507 11.2254 27.4372 12.3081L22.4897 17.1185C22.0443 17.5516 21.8457 18.1792 21.9611 18.7898L23.2548 25.637C23.5502 27.2001 21.867 28.3833 20.4961 27.5765L14.9393 24.3058Z" fill="#FB923C"/>
<path d="M15.5262 23.3084C14.5843 22.754 13.4157 22.754 12.4738 23.3084L6.91688 26.5791C6.40279 26.8817 5.77165 26.438 5.8824 25.8519L7.17606 19.0046C7.36349 18.0125 7.04088 16.9926 6.31702 16.2888L1.36959 11.4783C0.952014 11.0723 1.18976 10.3636 1.76771 10.2915L8.29274 9.47777C9.34462 9.34658 10.2499 8.67157 10.6757 7.70085L13.3642 1.57286C13.6071 1.01901 14.3929 1.01901 14.6358 1.57286L17.3243 7.70085C17.7501 8.67157 18.6554 9.34658 19.7073 9.47777L26.2323 10.2915C26.8102 10.3636 27.048 11.0723 26.6305 11.4783L21.683 16.2888C20.9591 16.9926 20.6366 18.0125 20.824 19.0046L22.1177 25.8519C22.2284 26.438 21.5972 26.8817 21.0831 26.5791L15.5262 23.3084Z" stroke="#0D0D0D" stroke-opacity="0.18" stroke-width="2"/>
</g>
<defs>
<clipPath id="clip0_0_19">
<rect width="28" height="28" rx="1.6" fill="white"/>
</clipPath>
</defs>
</svg>
