<svg width="22" height="22" viewBox="0 0 22 22" fill="none" xmlns="http://www.w3.org/2000/svg">
<mask id="mask0_0_62" style="mask-type:luminance" maskUnits="userSpaceOnUse" x="-2" y="0" width="24" height="24">
<path d="M22 0H-2V24H22V0Z" fill="white"/>
</mask>
<g mask="url(#mask0_0_62)">
<path d="M15.9102 2.55247C15.9102 2.30246 15.7402 2.08452 15.4979 2.02388L15.1996 1.94924C14.9007 1.87442 14.6278 1.71973 14.41 1.50168C14.1921 1.28364 14.0376 1.01044 13.9629 0.711289L13.8883 0.41295C13.8277 0.170257 13.6099 0 13.36 0C13.1103 0 12.8926 0.169952 12.8318 0.412355L12.7567 0.711289C12.6821 1.01033 12.5277 1.28346 12.31 1.50149C12.0923 1.71953 11.8196 1.87429 11.5209 1.94924L11.2226 2.02388C10.9803 2.08452 10.8103 2.30246 10.8103 2.55247C10.8103 2.80249 10.9803 3.02042 11.2226 3.08106L11.5209 3.15571C11.8197 3.23052 12.0927 3.38522 12.3105 3.60327C12.5283 3.82131 12.6829 4.09451 12.7576 4.39366L12.8322 4.69224C12.8927 4.93479 13.1105 5.10495 13.3602 5.10495C13.61 5.10495 13.8277 4.93479 13.8883 4.69224L13.9629 4.39366C14.0376 4.09451 14.1921 3.82131 14.41 3.60327C14.6278 3.38522 14.9007 3.23052 15.1996 3.15571L15.4979 3.08106C15.7402 3.02042 15.9102 2.80249 15.9102 2.55247Z" fill="#1A1A1A"/>
<path d="M22 7.5C22 7.15717 21.7667 6.85834 21.4341 6.77519L21.0247 6.67283C20.6145 6.57025 20.2399 6.35812 19.9409 6.05913C19.6419 5.76015 19.4298 5.38553 19.3272 4.97533L19.2248 4.56592C19.1417 4.23332 18.8428 4 18.5 4C18.1572 4 17.8584 4.23332 17.7752 4.56592L17.6728 4.97533C17.5703 5.38553 17.3581 5.76015 17.0591 6.05913C16.7602 6.35812 16.3855 6.57025 15.9753 6.67283L15.5659 6.77519C15.2333 6.85834 15 7.15717 15 7.5C15 7.84283 15.2333 8.14166 15.5659 8.22481L15.9753 8.32717C16.3855 8.42975 16.7602 8.64188 17.0591 8.94087C17.3581 9.23985 17.5703 9.61447 17.6728 10.0247L17.7752 10.4341C17.8584 10.7667 18.1572 11 18.5 11C18.8428 11 19.1417 10.7667 19.2248 10.4341L19.3272 10.0247C19.4298 9.61447 19.6419 9.23985 19.9409 8.94087C20.2399 8.64188 20.6145 8.42975 21.0247 8.32717L21.4341 8.22481C21.7667 8.14166 22 7.84283 22 7.5Z" fill="#1A1A1A"/>
<path d="M7.71348 4.51378C7.98379 3.82874 9.017 3.82874 9.2873 4.51378L11.2371 9.6693C11.322 9.88467 11.5031 10.6172 11.7328 10.6969L16.4521 12.7758C17.1826 13.0293 17.1826 13.9982 16.4521 14.2517L11.7328 15.8346C11.5031 15.9143 11.322 16.6468 11.2371 16.8622L9.2873 21.4862C9.017 22.1713 7.98379 22.1713 7.71348 21.4862L5.76374 16.8622C5.67875 16.6468 5.49768 15.9143 5.26801 15.8346L0.547882 14.2517C-0.182627 13.9982 -0.182627 13.0293 0.547882 12.7758L5.26801 10.6969C5.49768 10.6172 5.67875 9.88467 5.76374 9.6693L7.71348 4.51378Z" fill="#1A1A1A"/>
</g>
</svg>
