<svg width="14" height="19" viewBox="0 0 14 19" fill="none" xmlns="http://www.w3.org/2000/svg">
<path d="M13.9831 8.7253C13.9595 8.6232 13.9108 8.5285 13.8414 8.4498C13.772 8.371 13.6841 8.3107 13.5855 8.274L9.0043 7.5642L10.1655 0.761928C10.1922 0.627518 10.1749 0.488138 10.1162 0.364208C10.0576 0.240268 9.9605 0.138308 9.8394 0.0732477C9.717 0.00847767 9.5766 -0.0142223 9.44 0.00868773C9.3033 0.0315877 9.1781 0.0988175 9.0838 0.199898L0.175929 9.6989C0.102939 9.7743 0.0501185 9.8667 0.0223285 9.9676C-0.00546145 10.0686 -0.00734125 10.1749 0.0168587 10.2768C0.0417587 10.3783 0.0909088 10.4723 0.160149 10.5508C0.229379 10.6294 0.316649 10.6902 0.414529 10.728L4.99573 11.4378L3.83452 18.2401C3.80782 18.3745 3.82507 18.5139 3.88375 18.6378C3.94244 18.7617 4.03946 18.8637 4.16061 18.9288C4.25193 18.9746 4.35261 18.999 4.45489 19C4.54132 19.0004 4.6269 18.983 4.70628 18.9489C4.78565 18.9149 4.85711 18.8649 4.91619 18.8021L13.8241 9.3031C13.8971 9.2277 13.9499 9.1353 13.9777 9.0344C14.0055 8.9334 14.0073 8.8271 13.9831 8.7253Z" fill="#1A1A1A"/>
</svg>
