<svg width="19" height="17" viewBox="0 0 19 17" fill="none" xmlns="http://www.w3.org/2000/svg">
<path d="M13.7222 0C12.9029 0 12.0948 0.19202 11.3619 0.56085C10.6291 0.92969 9.9916 1.4652 9.5 2.12499C8.8354 1.23299 7.9088 0.5741 6.85144 0.24165C5.79411 -0.0908099 4.65967 -0.07997 3.6088 0.27262C2.55793 0.62521 1.64391 1.30168 0.99622 2.20621C0.34853 3.11074 0 4.19747 0 5.31247C0 11.6786 8.7875 16.6989 9.1569 16.9114C9.2616 16.9706 9.3799 17.0011 9.5 16.9999C9.6202 17.002 9.7387 16.9714 9.8431 16.9114C11.4613 15.9591 12.9791 14.8436 14.3731 13.5822C17.4431 10.802 19 8.0218 19 5.31247C19 3.90351 18.444 2.55227 17.4542 1.55599C16.4644 0.5597 15.122 0 13.7222 0Z" fill="#1A1A1A"/>
</svg>
